<?xml version="1.0"?>
<svg width="100" height="100" xmlns="http://www.w3.org/2000/svg" xmlns:svg="http://www.w3.org/2000/svg" data-name="Layer 1">
 <defs>
  <style>.cls-1{fill:#f0424d;}</style>
 </defs>
 <g class="layer">
  <title>Ceph Logo</title>
  <path class="cls-1" d="m81.56,89.6c-3.54,-1.9 -5.59,-4 -6,-6.35s0.57,-4.73 3.06,-7.62a37.7,37.7 0 0 0 -28.49,-62.43l-0.34,0a37.7,37.7 0 0 0 -28.45,62.43c2.52,2.91 3.49,5.31 3.1,7.52s-2.44,4.48 -6.06,6.44a52.6,52.6 0 0 1 -13.38,-16.85a49.82,49.82 0 0 1 44.82,-71.68l0.33,0a49.8,49.8 0 0 1 49.85,49.83a50.25,50.25 0 0 1 -5,21.85a53.25,53.25 0 0 1 -13.44,16.85m-18.41,9.33a18.14,18.14 0 0 1 -4.49,-4.51a20.44,20.44 0 0 1 -3.91,-12.41a27.69,27.69 0 0 1 2,-9.88a28.22,28.22 0 0 1 5.42,-8.47l0,0l0.51,-0.6a22.73,22.73 0 0 0 2.51,-3.3a16.87,16.87 0 0 0 1.98,-4.75a17.51,17.51 0 0 0 -2.76,-14.22a17.52,17.52 0 0 0 -5,-4.74a17.33,17.33 0 0 0 -6.78,-2.47a17.14,17.14 0 0 0 -2.48,-0.18l-0.36,0a17.24,17.24 0 0 0 -2.48,0.18a17.59,17.59 0 0 0 -6.82,2.43a18,18 0 0 0 -5,4.75a17.56,17.56 0 0 0 -2.79,14.25a16.87,16.87 0 0 0 1.92,4.73a23.29,23.29 0 0 0 2.51,3.27l0.51,0.6l0,0a28,28 0 0 1 5.43,8.47a27.69,27.69 0 0 1 2,9.88a20.43,20.43 0 0 1 -3.87,12.46a19.19,19.19 0 0 1 -4.48,4.51l-2.89,-0.87a51.17,51.17 0 0 1 -8.3,-3.66a14.15,14.15 0 0 0 7.47,-12.45a15,15 0 0 0 -4,-9.84l-0.12,-0.1l-0.79,-0.87l-2.09,-2.5a29.59,29.59 0 0 1 -5.09,-10.86a29.69,29.69 0 0 1 24.7,-36.26a29.28,29.28 0 0 1 4.18,-0.3l0.38,0a29.17,29.17 0 0 1 4.18,0.3a29.65,29.65 0 0 1 20,12.2a29.57,29.57 0 0 1 4.65,24.08a29.86,29.86 0 0 1 -5.08,10.87c-0.67,0.88 -1.37,1.65 -2.13,2.48l-0.76,0.85l-0.14,0.14c-2.68,3.21 -4,6.43 -4,9.83a14.17,14.17 0 0 0 7.46,12.45a49.23,49.23 0 0 1 -8.31,3.66l-2.87,0.87m-13.17,-37.73a9.84,9.84 0 1 1 9.84,-9.84a9.86,9.86 0 0 1 -9.84,9.84" id="svg_1"/>
 </g>
</svg>